# xmcd
#
# Track frame offsets:
#	150
#	19747
#	35977
#	53300
#	70952
#	89657
#	108352
#	126122
#	145105
#	163572
#
# Disc length: 2429 seconds
#
# Revision: 0
# Processed by: cddbd v1.4PL0 Copyright (c) Steve Scherf et al.
# Submitted via: EasyCDDAExtractor 4.5.0.2
#
DISCID=85097b0a
DTITLE=Sébastien Wild - Caché sous l'écorce
DYEAR=2001
DGENRE=blues
TTITLE0=Caché sous l'écorce
TTITLE1=Nouveaux arrivants
TTITLE2=elle me décore
TTITLE3=De plus en plus
TTITLE4=Désertion
TTITLE5=A l'autre bout de la laisse
TTITLE6=Embargo
TTITLE7=Calicot
TTITLE8=Excusez du dérangement
TTITLE9=Mars
EXTD=
EXTT0=
EXTT1=
EXTT2=
EXTT3=
EXTT4=
EXTT5=
EXTT6=
EXTT7=
EXTT8=
EXTT9=
PLAYORDER=
